<?xml version="1.0" encoding="utf-8"?>
<!-- Generator: Adobe Illustrator 23.0.3, SVG Export Plug-In . SVG Version: 6.00 Build 0)  -->
<svg version="1.1" id="Layer_1" xmlns="http://www.w3.org/2000/svg" xmlns:xlink="http://www.w3.org/1999/xlink" x="0px" y="0px"
	 viewBox="0 0 615 175" style="enable-background:new 0 0 615 175;" xml:space="preserve">
<style type="text/css">
	.st0{fill:#154734;}
</style>
<g>
	<g>
		<g>
			<path class="st0" d="M484.92,81.94c-1.4-9.47-6.16-16.6-14.58-20.84c-6.4-3.22-13.22-3.89-20.2-2.84
				c-13.56,2.05-25.55,13.29-25.59,30.32c0.05,0.77,0.08,1.76,0.16,2.75c0.97,10.95,5.97,19.06,15.81,23.62
				c5.64,2.6,11.62,3.32,17.76,2.62c8.89-1.02,16.22-5.01,21.56-12.5C484.77,98.15,486.16,90.29,484.92,81.94 M468.07,102.34
				c-2.35,6.35-7.01,10.03-12.87,9.94c-4.52-0.07-8.03-2.21-10.65-5.94c-2.83-4.02-3.99-8.68-4.47-13.54
				c-0.53-5.48-0.45-10.97,0.89-16.34c0.96-3.88,2.45-7.53,5.56-10.12c5.81-4.86,14.08-3.76,18.62,2.43
				c2.64,3.59,3.92,7.76,4.5,12.14c0.33,2.5,0.44,5.02,0.55,6.55C470.09,93.18,469.73,97.86,468.07,102.34"/>
			<path class="st0" d="M294,110.08c-1.99-0.52-3.31-1.62-4.03-3.7c-3.77-10.99-7.67-21.93-11.53-32.89
				c-1.56-4.44-3.11-8.87-4.66-13.31h-20.84l0.43,4.79c0,0,1.21,0.11,2.37,0.27c0.93,0.13,1.5,0.98,1.27,1.89
				c-1.15,4.56-11.38,33.04-13.33,38.52c-1.42,3.98-7.47,5.14-8.06,5.32c-0.1,1.54-0.26,3-0.37,4.5h21.58
				c-0.14-1.58-0.24-3.05-0.37-4.46c0,0-2.96-0.41-3.79-0.85c-1.31-0.68-1.31-1.9-0.92-2.85c1.26-3.12,2.12-6.03,3.23-9.15h17.99
				c0.85,3.02,1.63,6.02,2.37,9.08c0.4,1.63-0.17,2.39-1.83,2.85c-1.27,0.36-2.6,0.56-4.01,0.85c-0.13,1.48-0.24,2.96-0.37,4.51
				h28.62c-0.14-1.61-0.24-3.09-0.37-4.55C296.18,110.6,295.09,110.37,294,110.08 M256.67,93.31c2.42-6.92,4.72-13.66,7.09-20.41
				c0.1,0,0.22-0.01,0.34-0.01c2.24,6.76,4.62,13.51,6.91,20.43h-14.34V93.31z"/>
			<path class="st0" d="M343.32,97.15c-0.54,1.96-0.99,3.95-1.63,5.87c-0.98,2.9-2.95,4.82-5.96,5.59
				c-2.93,0.73-8.24,0.88-10.96,0.9c-0.94,0.01-1.71-0.75-1.71-1.69c0-6.21-0.01-27.96-0.02-39.46c0-1.41,0.65-2.2,2.03-2.47
				c1.67-0.33,3.31-0.71,4.93-1.06c0.12-1.67,0.38-4.62,0.38-4.62h-27.63c0,0,0.24,3.11,0.38,4.66c1.32,0.35,2.61,0.7,3.9,1.05
				c1.35,0.37,2.05,1.19,2.05,2.68c-0.02,12.85-0.02,25.7,0,38.56c0,1.47-0.63,2.29-2.04,2.65c-1.34,0.33-2.64,0.76-3.92,1.13
				c-0.14,1.57-0.23,3-0.37,4.51h44.15l1.61-19.81h-4.74C343.61,96.15,343.46,96.64,343.32,97.15"/>
			<path class="st0" d="M530.64,97.15c-0.54,1.96-0.99,3.95-1.63,5.87c-0.98,2.9-2.95,4.82-5.96,5.59
				c-2.93,0.73-8.24,0.88-10.96,0.9c-0.94,0.01-1.71-0.75-1.71-1.69c0-6.21-0.01-27.96-0.02-39.46c0-1.41,0.65-2.2,2.03-2.47
				c1.67-0.33,3.31-0.71,4.93-1.06c0.12-1.67,0.28-3.14,0.38-4.62h-27.64c0,0,0.24,3.11,0.38,4.66c1.32,0.35,2.61,0.7,3.9,1.05
				c1.35,0.37,2.05,1.19,2.05,2.68c-0.02,12.85-0.02,25.7,0,38.56c0,1.47-0.63,2.29-2.04,2.65c-1.34,0.33-2.64,0.76-3.92,1.13
				c-0.14,1.57-0.23,3-0.37,4.51h44.15l1.61-19.81h-4.74C530.93,96.15,530.78,96.64,530.64,97.15"/>
			<path class="st0" d="M226,51.87c-5.1-2.22-10.37-3.51-15.71-3.9c-4.44-0.34-8.93-0.01-13.46,0.93c-0.84,0.17-1.68,0.36-2.51,0.58
				c-1.44,0.37-2.82,0.82-4.17,1.32c-4.52,1.69-8.53,4.11-11.93,7.38c-2.01,1.93-3.8,4.15-5.35,6.69c-1.54,2.51-2.7,5.1-3.53,7.75
				c-1.77,5.7-1.96,11.69-0.95,17.87c0.43,2.59,1.08,5,1.92,7.24c3.3,8.71,9.78,14.75,19.44,18.04c7.58,2.58,14.42,2.92,22.27,1.57
				c2.93-0.51,5.82-1.2,8.37-2.22c3.12-1.25,5.81-2.54,8.9-4.45c0.55-0.35,0.95-0.73,1.24-1.18c0.34-0.54,0.51-1.18,0.54-1.98
				c0.1-2.68,0.47-5.75,0.7-8.42c0.18-2.01,0.3-5.08,0.49-7.19l0,0l-6.88,0.35c-0.01,0.08-0.02,0.15-0.04,0.23
				c-0.04,0.22-0.08,0.42-0.1,0.61c0,0.02-0.01,0.04-0.01,0.06c-0.98,5.17-2.7,10.48-6.44,14.2c-2.89,2.72-6.92,4.69-12.5,4.98
				c-0.01,0-0.02,0-0.03,0c-1.33,0.02-2.62-0.09-3.86-0.29c-2.81-0.46-5.37-1.45-7.63-2.95c-0.07-0.05-0.14-0.1-0.21-0.15
				c-0.33-0.23-0.66-0.46-0.98-0.71c-0.16-0.13-0.31-0.27-0.47-0.4c-0.22-0.19-0.45-0.36-0.66-0.56c-0.21-0.19-0.41-0.4-0.61-0.6
				c-0.15-0.15-0.31-0.29-0.46-0.45c-0.18-0.19-0.35-0.39-0.52-0.59c-0.16-0.19-0.33-0.36-0.49-0.56c-0.11-0.13-0.21-0.28-0.32-0.42
				c-0.21-0.27-0.42-0.53-0.62-0.82c-0.02-0.03-0.03-0.05-0.05-0.08c-0.88-1.26-1.66-2.65-2.34-4.16
				c-2.27-5.08-3.54-10.27-3.84-15.53c-0.27-4.68,0.24-9.42,1.55-14.2c0.54-1.98,1.25-3.84,2.16-5.56c1.86-3.5,4.55-6.39,8.26-8.36
				c0.29-0.15,0.58-0.3,0.88-0.45c0.09-0.04,0.18-0.08,0.27-0.12c3.67-1.7,7.46-2.59,11.18-2.28c2.89,0.27,6.09,1.29,8.88,3.29
				c4.09,2.95,6.63,7.23,8.09,11.94c0.02,0.06,0.04,0.12,0.06,0.18c0.24,0.8,0.49,1.61,0.71,2.35l0,0l0,0l6.05-0.31l0,0l0,0
				l-0.81-15.99c-0.45-0.32-0.91-0.69-1.42-0.98C228.08,52.98,227.08,52.34,226,51.87"/>
			<path class="st0" d="M374.78,100.28v7.17c0-0.05,0.01-0.09,0.01-0.14C374.78,104.97,374.78,102.62,374.78,100.28"/>
			<path class="st0" d="M424.42,64.6c-0.85-6.01-4.57-9.91-9.83-12.5c-5.17-2.54-10.74-3.32-16.43-3.34c-0.7,0-1.41,0-2.11,0
				c0-0.01,0-0.01,0.01-0.02h-27.65c0.09,1.52,0.28,2.95,0.36,4.44c0,0.06,0.01,0.12,0.01,0.18c1.54,0.44,2.91,0.84,4.28,1.26
				c1.18,0.35,1.72,1.09,1.72,2.38c-0.02,12.96-0.03,25.91,0,38.87c0,0,0.01,9.1,0.02,11.44c0,0.05-0.01,0.09-0.01,0.14
				c-0.04,1.27-0.63,1.98-1.83,2.32c-1.33,0.37-2.65,0.76-4.13,1.18c0,0.06-0.01,0.13-0.01,0.19c-0.09,1.38-0.37,4.3-0.37,4.31
				l26.87-0.03c0,0-0.27-3.03-0.36-4.47v-0.01c-1.48-0.42-2.81-0.8-4.13-1.18c-0.97-0.27-1.54-0.79-1.75-1.64
				c-0.01-0.21-0.02-0.43-0.02-0.67c0-15.08,0.06-44.25,0.11-52.15c0.01-1.11,0.9-2.01,2.01-2.03c1.87-0.03,3.67-0.08,5.45,0.05
				c5.86,0.43,10.02,3.81,11.79,9.42c1.26,4,1.35,8.07,0.15,12.07c-1.58,5.26-4.67,9.71-13.83,9.85l-0.35,4.59
				c8.31,0.16,15.87-1.13,22.49-6.23C422.88,78.38,425.48,72.17,424.42,64.6"/>
			<path class="st0" d="M587,60.19h-21.11c0.1,1.65,0.29,3.19,0.39,4.79c0.71,0.17,1.12,0.26,1.53,0.37
				c3.11,0.85,3.63,2.25,1.93,5.04c-1.67,2.75-9.64,19.43-9.64,19.43s-7.27-13.05-10.14-18.78c-0.48-0.96-2.67-4.56,1.06-5.54
				c0.97-0.26,1.98-0.36,3.17-0.58c0.07-1.62,0.37-4.73,0.37-4.73h-27.98c0.14,1.68,0.27,3.25,0.4,4.8c0.58,0.14,4.86,1.31,6.85,4.3
				c1.67,2.5,12.3,23.14,15.97,28.77l0.06,9.39c-0.04,1.27-0.63,1.98-1.83,2.32c-0.45,0.13-0.89,0.25-1.34,0.38
				c-0.89,0.25-1.81,0.52-2.79,0.8c0,0.06-0.36,4.49-0.36,4.5l26.87,0.01c0,0-0.29-3.05-0.38-4.5v-0.01
				c-1.48-0.42-2.81-0.8-4.13-1.18c-0.13-0.04-0.25-0.08-0.37-0.13c-0.74-0.29-1.25-0.74-1.37-1.52c-0.01-0.21-0.02-0.43-0.02-0.67
				c0-1.58-0.25-9.01,0.09-9.57l10.73-22.52c2.88-4.58,5.89-9.06,11.68-10.34C586.72,64.09,587,60.19,587,60.19"/>
		</g>
		<g>
			<path class="st0" d="M104.65,100.51l-5.27-5.7l3.1-2.91l-3.31-3.53l-1.97,1.85l0.28,2.86l-7.01-7.49l-2.65-0.08l-5.85,5.2
				l-0.08,2.49l5.64,6.12l-0.29,0.27l-1.07,1.01l-6.83,6.56l-20-21.59l-1.45-1.45l-0.33,10.4c-0.05,1.64,0.25,2.66,0.87,3.53
				c0.07,0.1,0.15,0.21,0.23,0.31c0.75,0.9,1.56,1.7,3.27,2.39c3.04,1.23,6.55,1.42,6.59,1.42l1.58,0.08l-1.39,0.76
				c-0.01,0.01-0.09,0.05-0.21,0.1c-0.45,0.2-1.65,0.61-3.55,0.56c-1.25-0.04-2.69-0.25-4.3-0.63c0.27,0.3,0.61,0.64,1,1.03
				c0.09,0.08,0.17,0.17,0.26,0.26c1.65,1.6,3.39,2.18,5.66,2.6c2.12,0.4,6.07,0.95,6.11,0.95l1.37,0.19l-1.1,0.58l-0.12,0.06
				c-0.06,0.03-1.41,0.73-3.82,0.66c-1.61-0.05-2.99-0.32-3.97-0.57l0.75,0.81l0.28,0.31c0.84,0.91,2.28,1.66,4.4,2.28
				c0.61,0.18,1.24,0.33,1.86,0.47c2.2,0.48,4.15,0.69,4.17,0.69l1.42,0.15l-0.84,0.46l-0.42,0.23c-0.16,0.08-1.58,0.82-4.1,0.66
				c-0.73-0.05-1.47-0.15-2.23-0.31c-0.01,0-0.02,0-0.02,0l0.01,0.01l-9.89,9.29l3.32,3.53l10.13-9.52
				c2.03,1.12,5.35,2.17,8.07,2.25l4.37,0.15l7.43,7.71h3.89l-16.08-17.35l7.04-6.61l0.99-0.93l0.24-0.22l0.17-0.17l5.26,5.65
				l2.65,0.08l5.85-5.2l0.08-2.49L104.65,100.51z"/>
			<path class="st0" d="M80.11,31.42c0-0.22-0.05-0.38-0.17-0.49c-0.17-0.16-0.47-0.25-0.94-0.25h-0.03l-0.75,0.01v1.59l0.73-0.01
				C79.72,32.26,80.11,31.97,80.11,31.42"/>
			<path class="st0" d="M60.66,32.22c0-0.29-0.07-0.49-0.22-0.63c-0.2-0.19-0.56-0.27-1.13-0.23l-0.82,0.05v2.02l0.81-0.05
				C60.2,33.33,60.66,32.94,60.66,32.22"/>
			<path class="st0" d="M80.51,34.68c0-0.25-0.07-0.43-0.2-0.56c-0.2-0.2-0.58-0.3-1.15-0.3h-0.04l-0.9,0.01v1.84l0.9-0.01
				C80.05,35.65,80.51,35.33,80.51,34.68"/>
			<path class="st0" d="M105.56,36.29c0.38,0.03,0.73-0.09,1-0.35c0.43-0.4,0.66-1.13,0.66-2.05c0-1.53-0.63-2.48-1.67-2.54
				c-0.03,0-0.07,0-0.1,0c-0.36,0-0.67,0.12-0.92,0.35c-0.42,0.39-0.64,1.08-0.64,1.99C103.89,35.23,104.53,36.23,105.56,36.29"/>
			<path class="st0" d="M97.79,35.35c0.4-0.38,0.6-1.03,0.6-1.9c0-1.64-0.69-2.43-2.16-2.48L96,30.96v4.85l0.24,0.01
				C96.92,35.84,97.44,35.69,97.79,35.35"/>
			<path class="st0" d="M130.63,70.89C130.62,70.89,130.62,70.89,130.63,70.89c-0.03-0.02-0.06-0.04-0.09-0.06
				c-0.09-0.05-0.17-0.11-0.27-0.17h-0.01c-3.84-2.64-11.35-9.79-11.76-9.79c-0.08,0-26.65,9.66-26.65,9.66
				c-0.03,0.01-0.4,0.09-0.64,0.09l-1.3-0.3l-4.93-1.14l-0.7-0.16l-0.7-0.16l-0.23-0.05l-0.62-0.14l-0.62-0.14l-1.81-0.42l-0.5-0.12
				l-0.86-0.2l-0.48-0.11l-1.14-0.26l-0.46-0.11l-0.8-0.19l-0.47-0.11l-0.29-0.07l-0.82,0.43l-0.43,0.23l-0.66,0.35l-0.42,0.22
				l-0.87,0.46l-0.43,0.22L71,69.21l-0.44,0.23l-1.2,0.63l-0.51,0.27l-0.94,0.49c-0.09,0-0.18,0-0.27,0c-0.52,0-0.98,0-1.39-0.01
				c-1.04-0.01-1.68-0.01-1.68-0.01c-1.19-0.02-2.41-0.04-3.65-0.04c-11.62-0.04-25.04,0.73-27.33,0.88l0.48-12.63l27.29,10.02
				c0.05-0.15,0.1-0.3,0.16-0.45c0.05-0.15,0.11-0.3,0.17-0.44c0.1-0.25,0.21-0.5,0.33-0.75c0.07-0.14,0.14-0.29,0.21-0.43
				s0.14-0.28,0.22-0.42L34.33,52.26l0.12-3.16c3.33-0.35,7.83-0.8,13.13-1.24l17.08,15.65c0.11-0.11,0.22-0.23,0.33-0.34
				s0.23-0.22,0.34-0.33c0.2-0.18,0.4-0.36,0.61-0.54c0.12-0.1,0.24-0.2,0.37-0.3c0.12-0.1,0.25-0.19,0.38-0.29L55.38,47.27
				c2.67-0.18,5.48-0.35,8.38-0.49l6.23,13.13c0.15-0.06,0.29-0.11,0.44-0.17c0.15-0.05,0.3-0.1,0.45-0.15
				c0.26-0.08,0.52-0.16,0.78-0.23c0.15-0.04,0.31-0.08,0.46-0.11c0.15-0.04,0.31-0.07,0.46-0.1l-2.92-12.63
				c0.73-0.03,1.47-0.05,2.21-0.07c1.85-0.06,3.72-0.1,5.6-0.13l-1.13,12.57c0.16,0.01,0.31,0.02,0.47,0.04
				c0.16,0.01,0.31,0.03,0.47,0.05c0.27,0.03,0.54,0.07,0.8,0.12c0.16,0.03,0.31,0.06,0.47,0.09c0.15,0.03,0.31,0.07,0.46,0.11
				l3.86-13.02h0.04c2.65,0,5.29,0.03,7.9,0.09l-8.29,14.28c0.14,0.07,0.28,0.15,0.41,0.23c0.14,0.08,0.27,0.16,0.41,0.25
				c0.23,0.14,0.46,0.29,0.68,0.45c0.13,0.09,0.26,0.18,0.38,0.28c0.12,0.09,0.23,0.18,0.35,0.27l-0.02,0.03l0.03-0.03
				c0.01,0,0.01,0.01,0.02,0.01l0.25-0.33l12.91-15.22c5.11,0.21,10,0.5,14.49,0.82L87.36,64.85c0.09,0.13,0.19,0.25,0.28,0.38
				s0.18,0.26,0.26,0.39c0.07,0.11,0.14,0.22,0.21,0.34c0.07,0.12,0.14,0.24,0.21,0.36c0.08,0.14,0.15,0.28,0.23,0.41
				c0.07,0.14,0.15,0.28,0.22,0.42l35.24-18.78c1.97,0.19,3.76,0.37,5.32,0.53c0.21,0.02,0.42,0.04,0.62,0.07l0.68,21.9V70.89z
				 M100.28,71.66c0.12-0.04,0.58-0.2,1.28-0.45c3.79-1.36,14.49-5.27,14.49-5.27l0,0l0,0l-9.51,6.19l0,0l0,0L100.28,71.66
				L100.28,71.66L100.28,71.66z M130.34,88.94c-0.15,1.85-0.47,4.28-1.11,7.13c-0.86,3.82-2.31,8.37-4.72,13.21
				c-2.62,5.26-6.39,10.87-11.79,16.26c-16.74,16.76-31.51,20.62-31.51,20.62s-13.81-4.32-29.94-20.44
				c-5.42-5.42-9.22-11-11.87-16.2c-2.19-4.29-3.6-8.32-4.51-11.8c-0.66-2.54-1.06-4.78-1.3-6.61c-0.41-3.23-0.33-5.17-0.33-5.17
				s0.11-0.06,0.33-0.18c1.06-0.55,4.69-2.3,11.08-4.03c4.31-1.18,9.88-2.36,16.75-3.17c5.39-0.64,11.59-1.04,18.62-1.04
				c3.39,0,6.61,0.08,9.68,0.23c24.23,1.17,38.41,6.43,40.47,7.24c0.17,0.07,0.26,0.11,0.26,0.11S130.54,86.52,130.34,88.94
				 M34.29,31.89l0.1-0.01c0.6-0.07,1.2-0.14,1.8-0.21l0.12-0.01v6.46c1.01-0.11,2.01-0.22,3.02-0.33l0.12-0.01v1.73l-0.1,0.01
				c-1.65,0.17-3.31,0.36-4.94,0.55l-0.12,0.01C34.29,40.08,34.29,31.89,34.29,31.89z M41.26,31.13l0.1-0.01
				c1.66-0.17,3.34-0.33,4.99-0.47l0.12-0.01v1.73l-0.1,0.01c-1.03,0.09-2.06,0.19-3.09,0.29v1.38c0.87-0.08,1.73-0.16,2.6-0.24
				L46,33.8v1.73l-0.1,0.01c-0.87,0.08-1.74,0.16-2.62,0.24v1.62c1.06-0.1,2.13-0.2,3.19-0.29l0.12-0.01v1.73l-0.1,0.01
				c-1.68,0.15-3.39,0.31-5.11,0.48l-0.12,0.01C41.26,39.33,41.26,31.13,41.26,31.13z M47.75,38.57c0.83-2.73,1.67-5.46,2.5-8.18
				l0.02-0.07l0.07-0.01c0.72-0.06,1.44-0.11,2.16-0.16l0.09-0.01l0.03,0.08l2.55,7.93l-0.14,0.01c-0.64,0.04-1.27,0.09-1.91,0.13
				l-0.09,0.01l-0.49-1.86c-0.75,0.06-1.51,0.11-2.26,0.17c-0.16,0.62-0.32,1.24-0.47,1.86l-0.02,0.08l-0.08,0.01
				c-0.61,0.05-1.23,0.1-1.84,0.15l-0.17,0.01L47.75,38.57z M56.47,29.87l0.1-0.01c0.96-0.06,1.92-0.12,2.87-0.17
				c1.15-0.06,2.01,0.16,2.54,0.67c0.43,0.41,0.65,1,0.65,1.76c0,1.09-0.49,1.93-1.38,2.42c0.58,1,1.16,2,1.75,3l0.09,0.16
				l-0.18,0.01c-0.67,0.03-1.35,0.07-2.02,0.1h-0.07l-0.03-0.06c-0.5-0.91-0.99-1.82-1.49-2.73c-0.27,0.02-0.55,0.03-0.82,0.05v2.87
				l-0.1,0.01c-0.6,0.04-1.2,0.07-1.8,0.11l-0.12,0.01v-8.2H56.47z M64.37,29.45h0.1c0.62-0.03,1.23-0.05,1.85-0.08h0.07l0.03,0.06
				c0.69,1.3,1.39,2.59,2.08,3.89l0.58,1.26C69,33.82,68.9,32.96,68.9,32.2v-2.92h0.11c0.57-0.02,1.15-0.04,1.72-0.05h0.11v8.19
				h-0.11c-0.62,0.02-1.23,0.04-1.85,0.06h-0.07l-0.03-0.06c-0.69-1.3-1.39-2.6-2.08-3.9l-0.58-1.26c0,0.04,0.01,0.09,0.01,0.13
				c0.08,0.71,0.16,1.52,0.16,2.24v2.94h-0.1c-0.57,0.02-1.15,0.05-1.72,0.07h-0.11v-8.19H64.37z M76.2,29.1h0.11
				c0.91-0.01,1.82-0.02,2.74-0.03c1.21-0.01,2.05,0.23,2.55,0.72c0.34,0.34,0.51,0.79,0.51,1.36c0,0.73-0.38,1.42-0.92,1.73
				c0.84,0.3,1.32,0.98,1.32,1.92c0,1.53-1.2,2.46-3.22,2.47c-0.99,0.01-1.97,0.02-2.96,0.03h-0.11v-8.2H76.2z M83.18,29.06
				c0.64,0,1.29,0,1.93,0.01h0.07l0.03,0.07c0.24,0.61,0.48,1.23,0.71,1.84c0.14,0.38,0.27,0.74,0.41,1.11l0.17,0.46
				c0.08-0.23,0.17-0.44,0.26-0.66c0.11-0.29,0.23-0.59,0.34-0.89l0.74-1.9h0.08c0.63,0.01,1.26,0.02,1.89,0.03h0.17l-0.08,0.15
				c-0.8,1.69-1.6,3.38-2.4,5.07v2.93h-0.11c-0.6-0.01-1.2-0.01-1.8-0.02h-0.11v-2.93c-0.8-1.71-1.6-3.42-2.4-5.12l-0.07-0.16
				L83.18,29.06z M93.97,29.22h0.11c0.75,0.02,1.51,0.05,2.26,0.07c2.65,0.09,4.12,1.59,4.11,4.22c0,1.33-0.36,2.35-1.07,3.03
				c-0.65,0.63-1.57,0.95-2.73,0.95c-0.08,0-0.15,0-0.23,0c-0.79-0.03-1.57-0.05-2.36-0.07h-0.11v-8.2H93.97z M102.97,30.43
				c0.65-0.62,1.54-0.91,2.59-0.85c2.26,0.13,3.73,1.87,3.73,4.43c0,1.38-0.4,2.48-1.16,3.2c-0.6,0.57-1.4,0.86-2.32,0.86
				c-0.08,0-0.17,0-0.25-0.01c-2.27-0.13-3.73-1.88-3.73-4.47C101.82,32.23,102.22,31.14,102.97,30.43 M110.94,30.07l0.12,0.01
				c0.6,0.04,1.2,0.09,1.8,0.13l0.1,0.01v8.2l-0.12-0.01c-0.6-0.05-1.2-0.09-1.8-0.13l-0.1-0.01V30.07z M115.43,30.41l0.12,0.01
				c0.62,0.05,1.23,0.1,1.85,0.16h0.06l0.03,0.05c0.69,1.38,1.39,2.77,2.08,4.15l0.57,1.32l0,0c-0.08-0.76-0.17-1.62-0.17-2.36V30.8
				l0.12,0.01c0.57,0.05,1.14,0.11,1.72,0.16l0.1,0.01v8.2l-0.12-0.01c-0.62-0.06-1.23-0.12-1.85-0.18l-0.06-0.01l-0.03-0.05
				c-0.69-1.39-1.39-2.78-2.08-4.17l-0.57-1.32c0,0.03,0.01,0.06,0.01,0.09c0.08,0.72,0.16,1.54,0.16,2.27v2.95l-0.12-0.01
				c-0.57-0.05-1.14-0.1-1.72-0.14l-0.1-0.01C115.43,38.59,115.43,30.41,115.43,30.41z M124.72,32.24c0.72-0.64,1.72-0.93,2.8-0.81
				c1.26,0.14,2.1,0.82,2.58,1.36l0.06,0.07l-1.09,1.2L129,33.98c-0.4-0.41-0.79-0.7-1.44-0.77c-0.51-0.06-0.97,0.07-1.31,0.38
				c-0.44,0.39-0.67,1.03-0.67,1.85c0,1.63,0.74,2.57,2.14,2.73c0.28,0.03,0.55-0.01,0.72-0.1v-1.22c-0.41-0.05-0.81-0.09-1.22-0.14
				l-0.1-0.01v-1.69l0.12,0.01c0.97,0.11,1.94,0.22,2.91,0.33l0.1,0.01v3.82l-0.04,0.03c-0.53,0.46-1.35,0.72-2.22,0.72
				c-0.16,0-0.32-0.01-0.49-0.03c-2.43-0.27-4-2.08-3.99-4.61C123.53,34,123.94,32.94,124.72,32.24 M106.44,20.87
				c-0.26-0.02-0.53-0.03-0.79-0.05c-5.78-0.33-12.01-0.59-18.36-0.67c-0.16,0-0.32,0-0.48-0.01c-0.16,0-0.32,0-0.48-0.01
				c-1.14,0-2.28-0.01-3.43-0.01c-0.71,0-1.42,0-2.13,0.01c-0.16,0-0.32,0-0.48,0s-0.32,0-0.48,0c-5.47,0.06-10.94,0.24-16.16,0.49
				c-0.16,0.01-0.32,0.02-0.48,0.02c-0.16,0.01-0.32,0.02-0.48,0.02c-1.96,0.1-3.88,0.21-5.74,0.33c-0.16,0.01-0.33,0.02-0.49,0.03
				s-0.33,0.02-0.49,0.03C40.03,22.08,28,23.57,28,23.57v14.28l0.17,11.27l0.01,0.53v0.05l0.01,0.49l0.08,5.68l0.01,0.51l0.01,0.51
				l0.41,27.99c-0.08,9.78,2.34,18.61,6.17,26.43c11.05,22.52,33.86,36.75,42.7,41.62l3.78,1.94l3.59-1.94
				c9.2-4.91,33.01-19.31,44.45-42.07c3.87-7.69,6.32-16.34,6.32-25.91l0.52-35.25l0.19-13.12V23.57
				C136.42,23.57,123.48,21.88,106.44,20.87"/>
			<path class="st0" d="M51.96,34.25c-0.14-0.49-0.28-1.05-0.41-1.59c-0.05-0.2-0.1-0.4-0.15-0.6c-0.17,0.75-0.36,1.58-0.55,2.29
				c-0.05,0.2-0.1,0.4-0.15,0.6c0.47-0.04,0.95-0.07,1.42-0.11L51.96,34.25z"/>
		</g>
	</g>
</g>
</svg>
